<mxfile host="app.diagrams.net" modified="2024-06-06T14:42:10.627Z" agent="Mozilla/5.0 (X11; Linux x86_64; rv:126.0) Gecko/20100101 Firefox/126.0" version="24.4.15" etag="cuIDnDlv_ZPmn3ksUUAr" type="github">
  <diagram name="Page-1" id="fUNp-02ss8JfLxEierWM">
    <mxGraphModel>
      <root>
        <mxCell id="0" />
        <mxCell id="1" parent="0" />
      </root>
    </mxGraphModel>
  </diagram>
</mxfile>
